<svg id="Capa_1" enable-background="new 0 0 512 512" height="512" viewBox="0 0 512 512" width="512" xmlns="http://www.w3.org/2000/svg"><g><g><g><g fill="#fcb44d"><path d="m298.05 7.5h-84.101c-3.573 0-6.874 1.906-8.66 5l-42.05 72.833c-1.786 3.094-1.786 6.906 0 10l42.05 72.833c1.786 3.094 5.088 5 8.66 5h84.101c3.573 0 6.874-1.906 8.66-5l42.05-72.833c1.786-3.094 1.786-6.906 0-10l-42.05-72.833c-1.786-3.094-5.087-5-8.66-5z"/><path d="m298.05 173.167h-84.101c-3.573 0-6.874 1.906-8.66 5l-42.05 72.833c-1.786 3.094-1.786 6.906 0 10l42.05 72.833c1.786 3.094 5.088 5 8.66 5h84.101c3.573 0 6.874-1.906 8.66-5l42.051-72.833c1.786-3.094 1.786-6.906 0-10l-42.05-72.833c-1.787-3.094-5.088-5-8.661-5z"/><path d="m298.05 338.833h-84.101c-3.573 0-6.874 1.906-8.66 5l-42.05 72.833c-1.786 3.094-1.786 6.906 0 10l42.05 72.833c1.786 3.094 5.088 5 8.66 5h84.101c3.573 0 6.874-1.906 8.66-5l42.05-72.833c1.786-3.094 1.786-6.906 0-10l-42.05-72.833c-1.786-3.094-5.087-5-8.66-5z"/></g><g><path d="m298.05 7.5h-84.101c-3.573 0-6.874 1.906-8.66 5l-42.05 72.833c-1.786 3.094-1.786 6.906 0 10l42.05 72.833c1.786 3.094 5.088 5 8.66 5h84.101c3.573 0 6.874-1.906 8.66-5l42.05-72.833c1.786-3.094 1.786-6.906 0-10l-42.05-72.833c-1.786-3.094-5.087-5-8.66-5z" fill="#fcb44d"/><path d="m348.76 95.33-42.05 72.84c-1.79 3.09-5.09 5-8.66 5h-43.43c3.58 0 6.88-1.91 8.66-5l42.05-72.84c1.79-3.09 1.79-6.9 0-10l-42.05-72.83c-1.78-3.09-5.08-5-8.66-5h43.43c3.57 0 6.87 1.91 8.66 5l42.05 72.83c1.79 3.1 1.79 6.91 0 10z" fill="#fb9927"/><path d="m298.05 173.167h-84.101c-3.573 0-6.874 1.906-8.66 5l-42.05 72.833c-1.786 3.094-1.786 6.906 0 10l42.05 72.833c1.786 3.094 5.088 5 8.66 5h84.101c3.573 0 6.874-1.906 8.66-5l42.051-72.833c1.786-3.094 1.786-6.906 0-10l-42.05-72.833c-1.787-3.094-5.088-5-8.661-5z" fill="#fb9927"/><path d="m348.76 261-42.05 72.83c-1.79 3.1-5.09 5-8.66 5h-43.43c3.58 0 6.88-1.9 8.66-5l42.05-72.83c1.79-3.09 1.79-6.91 0-10l-42.05-72.83c-1.78-3.1-5.08-5-8.66-5h43.43c3.57 0 6.87 1.9 8.66 5l42.05 72.83c1.79 3.09 1.79 6.91 0 10z" fill="#f98824"/><path d="m298.05 338.833h-84.101c-3.573 0-6.874 1.906-8.66 5l-42.05 72.833c-1.786 3.094-1.786 6.906 0 10l42.05 72.833c1.786 3.094 5.088 5 8.66 5h84.101c3.573 0 6.874-1.906 8.66-5l42.05-72.833c1.786-3.094 1.786-6.906 0-10l-42.05-72.833c-1.786-3.094-5.087-5-8.66-5z" fill="#fcb44d"/><g><path d="m348.76 426.67-42.05 72.83c-1.79 3.09-5.09 5-8.66 5h-43.43c3.58 0 6.88-1.91 8.66-5l42.05-72.83c1.79-3.1 1.79-6.91 0-10l-42.05-72.84c-1.78-3.09-5.08-5-8.66-5h43.43c3.57 0 6.87 1.91 8.66 5l42.05 72.84c1.79 3.09 1.79 6.9 0 10z" fill="#fb9927"/></g></g><g><path d="m441.522 90.333h-84.101c-3.573 0-6.874 1.906-8.66 5l-42.05 72.833c-1.786 3.094-1.786 6.906 0 10l42.05 72.834c1.786 3.094 5.088 5 8.66 5h84.101c3.573 0 6.874-1.906 8.66-5l42.05-72.833c1.786-3.094 1.786-6.906 0-10l-42.05-72.833c-1.786-3.095-5.088-5.001-8.66-5.001z" fill="#fcc16d"/><path d="m492.23 178.17-42.05 72.83c-1.78 3.09-5.09 5-8.66 5h-43.43c3.58 0 6.88-1.91 8.66-5l42.05-72.83c1.79-3.1 1.79-6.91 0-10l-42.05-72.84c-1.78-3.09-5.08-5-8.66-5h43.43c3.57 0 6.88 1.91 8.66 5l42.05 72.84c1.79 3.09 1.79 6.9 0 10z" fill="#fca62f"/><path d="m441.522 256h-84.101c-3.573 0-6.874 1.906-8.66 5l-42.05 72.833c-1.786 3.094-1.786 6.906 0 10l42.05 72.833c1.786 3.094 5.088 5 8.66 5h84.101c3.573 0 6.874-1.906 8.66-5l42.05-72.833c1.786-3.094 1.786-6.906 0-10l-42.05-72.833c-1.786-3.094-5.088-5-8.66-5z" fill="#ffd496"/><path d="m492.23 343.83-42.05 72.84c-1.78 3.09-5.09 5-8.66 5h-43.43c3.58 0 6.88-1.91 8.66-5l42.05-72.84c1.79-3.09 1.79-6.9 0-10l-42.05-72.83c-1.78-3.09-5.08-5-8.66-5h43.43c3.57 0 6.88 1.91 8.66 5l42.05 72.83c1.79 3.1 1.79 6.91 0 10z" fill="#fcb44d"/></g><g><path d="m154.579 90.333h-84.101c-3.573 0-6.874 1.906-8.66 5l-42.05 72.833c-1.786 3.094-1.786 6.906 0 10l42.05 72.834c1.786 3.094 5.088 5 8.66 5h84.101c3.573 0 6.874-1.906 8.66-5l42.05-72.833c1.786-3.094 1.786-6.906 0-10l-42.05-72.833c-1.787-3.095-5.088-5.001-8.66-5.001z" fill="#ffd496"/><g><path d="m205.29 178.17-42.05 72.83c-1.79 3.09-5.09 5-8.66 5h-43.43c3.57 0 6.87-1.91 8.66-5l42.05-72.83c1.79-3.1 1.79-6.91 0-10l-42.05-72.84c-1.79-3.09-5.09-5-8.66-5h43.43c3.57 0 6.87 1.91 8.66 5l42.05 72.84c1.79 3.09 1.79 6.9 0 10z" fill="#fcb44d"/></g><path d="m154.579 256h-84.101c-3.573 0-6.874 1.906-8.66 5l-42.05 72.833c-1.786 3.094-1.786 6.906 0 10l42.05 72.833c1.786 3.094 5.088 5 8.66 5h84.101c3.573 0 6.874-1.906 8.66-5l42.05-72.833c1.786-3.094 1.786-6.906 0-10l-42.05-72.833c-1.787-3.094-5.088-5-8.66-5z" fill="#fcc16d"/><path d="m205.29 343.83-42.05 72.84c-1.79 3.09-5.09 5-8.66 5h-43.43c3.57 0 6.87-1.91 8.66-5l42.05-72.84c1.79-3.09 1.79-6.9 0-10l-42.05-72.83c-1.79-3.09-5.09-5-8.66-5h43.43c3.57 0 6.87 1.91 8.66 5l42.05 72.83c1.79 3.1 1.79 6.91 0 10z" fill="#fca62f"/></g></g></g><path d="m456.677 257.25c-.249-.432-.522-.846-.804-1.251.282-.405.555-.818.804-1.25l42.05-72.833c3.117-5.397 3.117-12.103 0-17.5l-42.05-72.833c-3.116-5.397-8.923-8.75-15.155-8.75h-84.101c-.498 0-.993.029-1.485.071-.209-.447-.431-.89-.68-1.321l-17.049-29.528c-2.071-3.587-6.659-4.817-10.245-2.745-3.587 2.071-4.816 6.658-2.745 10.245l17.048 29.528c.445.771.445 1.729 0 2.5l-42.051 72.834c-.445.771-1.274 1.25-2.165 1.25h-84.101c-.89 0-1.72-.479-2.165-1.25l-42.051-72.834c-.445-.771-.445-1.729 0-2.5l42.051-72.833c.445-.771 1.274-1.25 2.165-1.25h84.101c.89 0 1.72.479 2.165 1.25l7.301 12.645c2.071 3.587 6.659 4.815 10.245 2.745 3.587-2.071 4.816-6.658 2.745-10.245l-7.3-12.644c-3.115-5.398-8.923-8.751-15.155-8.751h-84.101c-6.232 0-12.04 3.353-15.155 8.75l-42.05 72.833c-.249.432-.471.875-.681 1.322-.492-.042-.986-.071-1.485-.071h-84.1c-6.231 0-12.039 3.353-15.155 8.75l-42.051 72.834c-3.115 5.397-3.115 12.103 0 17.5l42.051 72.834c.249.431.521.845.804 1.249-.283.405-.555.818-.804 1.25l-42.051 72.833c-3.115 5.397-3.115 12.103 0 17.5l42.05 72.833c3.116 5.397 8.923 8.75 15.155 8.75h84.101c.498 0 .993-.029 1.484-.071.209.447.431.89.681 1.321l42.05 72.833c3.116 5.397 8.923 8.75 15.155 8.75h84.101c6.232 0 12.04-3.353 15.155-8.75l42.051-72.833c.249-.432.471-.874.68-1.321.492.042.986.071 1.485.071h84.101c6.232 0 12.04-3.353 15.155-8.75l42.05-72.833c3.117-5.397 3.117-12.103 0-17.5zm-156.462 72.833c-.249.432-.471.874-.68 1.321-.492-.042-.986-.071-1.484-.071h-84.101c-.498 0-.993.029-1.485.071-.209-.447-.431-.89-.68-1.321l-42.05-72.833c-.249-.432-.521-.845-.804-1.25.282-.405.555-.818.804-1.25l42.05-72.833c.249-.432.471-.874.68-1.321.492.042.986.071 1.485.071h84.101c.498 0 .993-.029 1.485-.071.209.447.431.89.68 1.321l42.051 72.833c.249.432.521.845.804 1.25-.282.405-.555.818-.804 1.25zm-273.953-155.666c-.445-.771-.445-1.729 0-2.5l42.05-72.833c.446-.771 1.275-1.25 2.166-1.25h84.101c.891 0 1.72.479 2.166 1.25l42.05 72.833c.445.771.445 1.729 0 2.5l-42.05 72.833c-.446.771-1.275 1.25-2.166 1.25h-84.101c-.89 0-1.72-.479-2.165-1.25zm316.004 248.5-42.051 72.833c-.445.771-1.275 1.25-2.165 1.25h-84.101c-.89 0-1.72-.479-2.165-1.25l-42.051-72.834c-.445-.771-.445-1.729 0-2.5l12.101-20.96c.129-.224.246-.452.35-.683 1.559-3.467.268-7.62-3.095-9.562-3.587-2.073-8.174-.842-10.245 2.745l-12.101 20.959c-.445.771-1.275 1.25-2.165 1.25h-84.1c-.89 0-1.72-.479-2.165-1.25l-42.05-72.833c-.445-.771-.445-1.729 0-2.5l42.05-72.833c.445-.771 1.275-1.25 2.165-1.25h84.101c.89 0 1.72.479 2.165 1.25l42.05 72.833c.445.771.445 1.729 0 2.5l-12.25 21.219c-2.071 3.587-.842 8.174 2.745 10.245 3.585 2.071 8.174.841 10.245-2.745l12.25-21.219c.445-.771 1.275-1.25 2.165-1.25h84.101c.89 0 1.72.479 2.165 1.25l42.05 72.833c.446.773.446 1.731.001 2.502zm143.471-82.834-42.051 72.834c-.445.771-1.274 1.25-2.165 1.25h-84.101c-.89 0-1.72-.479-2.165-1.25l-42.051-72.833c-.445-.771-.445-1.729 0-2.5l42.051-72.833c.445-.771 1.274-1.25 2.165-1.25h27.28c4.142 0 7.5-3.358 7.5-7.5s-3.358-7.5-7.5-7.5h-27.28c-.89 0-1.72-.479-2.165-1.25l-42.051-72.833c-.445-.771-.445-1.729 0-2.5l42.051-72.833c.445-.771 1.275-1.25 2.165-1.25h84.101c.89 0 1.72.479 2.165 1.25l42.05 72.834c.445.771.445 1.728 0 2.5l-42.05 72.833c-.445.771-1.275 1.25-2.165 1.25h-21.425c-4.142 0-7.5 3.358-7.5 7.5s3.358 7.5 7.5 7.5h21.425c.89 0 1.72.479 2.165 1.25l42.05 72.833c.446.769.446 1.727.001 2.498z"/></g></svg>
